<svg xmlns="http://www.w3.org/2000/svg" viewBox="0 0 1600 900" role="img" aria-label="Decorative botanical skincare artwork"><defs><linearGradient id="g" x1="0" x2="1"><stop stop-color="#d7c5e8"/><stop offset="1" stop-color="#e8b8b4"/></linearGradient><radialGradient id="d"><stop stop-color="#fff" stop-opacity=".9"/><stop offset="1" stop-color="#fff" stop-opacity="0"/></radialGradient></defs><rect width="1600" height="900" fill="url(#g)"/><circle cx="1240" cy="310" r="310" fill="url(#d)"/><path d="M1190 850C1220 650 1260 470 1420 190" fill="none" stroke="#405f4a" stroke-width="18" stroke-linecap="round"/><g fill="#65806c"><ellipse cx="1280" cy="610" rx="105" ry="38" transform="rotate(-35 1280 610)"/><ellipse cx="1360" cy="470" rx="115" ry="40" transform="rotate(25 1360 470)"/><ellipse cx="1420" cy="330" rx="110" ry="38" transform="rotate(-28 1420 330)"/></g><g fill="#fff" fill-opacity=".55"><circle cx="980" cy="220" r="34"/><circle cx="1060" cy="170" r="18"/><circle cx="1110" cy="280" r="25"/></g><path d="M1030 680c90-100 210-90 260 20-120 65-205 55-260-20Z" fill="#f8f1e7"/><path d="M1080 720c70-75 160-70 205 12-92 48-157 43-205-12Z" fill="#d9775f" fill-opacity=".55"/><g stroke="#4a1737" stroke-opacity=".22" fill="none" stroke-width="4"><path d="M90 760C250 570 240 390 160 230"/><path d="M160 530c110-70 190-55 250 35"/><path d="M210 420c70-100 160-120 250-60"/></g></svg>