<svg xmlns="http://www.w3.org/2000/svg" viewBox="0 0 520 260" role="img" aria-labelledby="title desc">
  <title id="title">Ruwah Beauty</title>
  <desc id="desc">Purple Ruwah Beauty droplet monogram.</desc>
  <g fill="none" stroke="#9236cf" stroke-width="18" stroke-linecap="round" stroke-linejoin="round">
    <path d="M104 190c-20-16-25-42-10-64 11-16 20-25 24-43 4 18 13 27 24 43 15 22 10 48-10 64-8 7-20 7-28 0Z"/>
    <path d="M118 126V74c0-30 22-52 52-52s52 22 52 52v91c0 31 22 53 52 53s52-22 52-53v-49"/>
    <path d="M326 116v49c0 31 22 53 52 53s52-22 52-53V54"/>
    <circle cx="430" cy="153" r="55"/>
  </g>
</svg>
